
<svg version="1" xmlns="http://www.w3.org/2000/svg" width="500" height="500" fill="#5479ec" viewBox="0 0 8329.000000 8329.000000"><path d="M5946.5 1058.6c-141.4 6.2-265.4 36.5-391.5 95.9-32.1 15.1-54.2 27.2-145.4 79.9-46.9 27-189.6 109.4-317.2 183.1l-232.1 134-.6 34c-2.7 138-3.3 1234.2-1 1915.8l.6 200.9 29.6-.8c54.8-1.3 278.2-1 307.6.4 54.3 2.5 62.7 3.5 84.2 9.2 23.3 6.2 48.2 18 65.5 31 11.2 8.4 21.1 18.4 23.4 23.7 5.5 12.7-.9 41.5-16.2 72.3-8.7 17.5-16.8 29.9-26 40-36.7 40-287.5 303.4-620.4 651.5-213.9 223.7-296.2 309.9-382.9 401-82.9 87.1-86.6 90.8-105.4 102.9-28.8 18.8-57 22.6-85.4 11.6-14.9-5.7-33.1-17.7-48.7-32.1-3.9-3.5-49.5-50.9-101.5-105.4-52.1-54.4-134.6-140.9-183.6-192-503.4-526.2-581.5-608-769.5-806.4-41.2-43.4-46.9-50.8-60.4-77.8-11.4-23-17.7-43-17.8-56.8 0-7.9.7-9.8 6-16.1 12.3-14.8 41.2-32.6 68.1-41.9 22.7-7.8 39.2-10.8 68.6-12.4 50.3-2.9 89.6-3.3 229.6-2.6l142.7.6.6-360.3c1.6-972.3 1.6-986-.2-985.5-1.7.4-1620.5 934.8-1643.2 948.5-17.1 10.2-58.4 37.7-75.5 50.2-188.9 138.1-321.2 335.1-377.5 562-54.2 218.7-34.4 450.1 56.1 655 81.8 185.2 220.3 341.6 396.4 447.7 17.7 10.7 3647 2106.2 3672 2120.1 23.4 13.1 70.7 36.2 96.4 47.2 106 45 213.2 70.4 330.6 78.1 39.1 2.6 102.7 1.4 147.5-2.7 185-16.9 365-86.7 515.5-199.9 127.9-96.3 228.7-217.9 298.1-360 47.6-97.4 78.6-202.1 92.3-312 1.9-15.3 3.7-33.6 6.3-64 1.6-19.2 2.4-4260.1.8-4302-2.9-75.4-12.6-143.8-30.4-213.9-39.5-155.2-114.2-294.8-223-416.6-15.5-17.4-58.3-60.1-75.6-75.6-71.5-63.6-145.2-113.4-230-155.3-119.2-59-244.6-93.1-377.5-102.6-20-1.5-83-2.6-100-1.9zM5278 5151.9c52.8 5.2 86.4 15.5 113.2 34.8 15 10.8 29.9 28.5 38.6 45.9 19.3 38.5 22.8 106.5 7.8 151.1-17.2 51-57.2 79.4-125.6 89.3-33.2 4.7 26.3 4.5-1149 4.5-1176.5 0-1115.5.2-1149.5-4.6-76.6-10.8-118.1-45.8-131-110.3-9.4-47.4-4.4-100.2 12.9-134.2 17.3-34.3 48.5-56.8 94.6-68.3 17.7-4.4 49.6-8.6 71.5-9.3 3.9-.2 501.6-.2 1106-.2 808.1.1 1102 .5 1110.5 1.3z"/></svg>