<svg xmlns="http://www.w3.org/2000/svg" viewBox="0 0 64.43 64.77"><defs><style>.cls-1{fill:#feee00;}</style></defs><title>Asset 2</title><g id="Layer_2" data-name="Layer 2"><g id="Layer_1-2" data-name="Layer 1"><g id="Page-1"><g id="Artboard"><g id="noon_logo_black_arabic" data-name="noon logo black arabic"><path id="Fill-1" class="cls-1" d="M0,33.92C0,51.28,14.76,64.77,31.92,64.77A32.4,32.4,0,0,0,64.43,32.58,33,33,0,0,0,52,7.08l-5.4,9.35a21.48,21.48,0,0,1,7.54,16.29,22.2,22.2,0,0,1-44.4-.34,23.13,23.13,0,0,1,.4-4.34ZM41.93,1.6A24.15,24.15,0,0,0,33.39,0a27.19,27.19,0,0,0-5.21.53l-6.95,12a18.81,18.81,0,0,1,9.35-2.27,21.73,21.73,0,0,1,5.88.8Z"/></g></g></g></g></g></svg>